<svg width="24" height="24" viewBox="0 0 24 24" fill="none" xmlns="http://www.w3.org/2000/svg">
  <g id="arrow-back-outline" clip-path="url(#clip0_301_3401)">
    <path d="M19 11H7.14L10.77 6.64C10.9397 6.43578 11.0214 6.1725 10.997 5.90808C10.9726 5.64365 10.8442 5.39974 10.64 5.23C10.4358 5.06026 10.1725 4.9786 9.90808 5.00298C9.64365 5.02736 9.39974 5.15578 9.23 5.36L4.23 11.36C4.19636 11.4077 4.16628 11.4579 4.14 11.51C4.14 11.56 4.14 11.59 4.07 11.64C4.02467 11.7547 4.00094 11.8767 4 12C4.00094 12.1233 4.02467 12.2453 4.07 12.36C4.07 12.41 4.07 12.44 4.14 12.49C4.16628 12.5421 4.19636 12.5923 4.23 12.64L9.23 18.64C9.32402 18.7529 9.44176 18.8437 9.57485 18.9059C9.70793 18.9681 9.85309 19.0002 10 19C10.2337 19.0005 10.4601 18.9191 10.64 18.77C10.7413 18.6861 10.825 18.583 10.8863 18.4666C10.9477 18.3503 10.9855 18.2229 10.9975 18.092C11.0096 17.961 10.9957 17.8289 10.9567 17.7033C10.9176 17.5777 10.8542 17.4611 10.77 17.36L7.14 13H19C19.2652 13 19.5196 12.8946 19.7071 12.7071C19.8946 12.5196 20 12.2652 20 12C20 11.7348 19.8946 11.4804 19.7071 11.2929C19.5196 11.1054 19.2652 11 19 11Z" fill="black"/>
  </g>
  <g id="arrow-forward-outline" clip-path="url(#clip0_301_3440)">
    <path d="M5 13H16.86L13.23 17.36C13.146 17.4611 13.0826 17.5778 13.0437 17.7034C13.0047 17.829 12.9909 17.961 13.003 18.0919C13.0274 18.3564 13.1558 18.6003 13.36 18.77C13.5642 18.9397 13.8275 19.0214 14.0919 18.997C14.3563 18.9726 14.6003 18.8442 14.77 18.64L19.77 12.64C19.8036 12.5923 19.8337 12.5421 19.86 12.49C19.86 12.44 19.91 12.41 19.93 12.36C19.9753 12.2453 19.9991 12.1233 20 12C19.9991 11.8767 19.9753 11.7547 19.93 11.64C19.93 11.59 19.88 11.56 19.86 11.51C19.8337 11.4579 19.8036 11.4077 19.77 11.36L14.77 5.36C14.676 5.24712 14.5582 5.15634 14.4252 5.09412C14.2921 5.0319 14.1469 4.99976 14 5C13.7663 4.99955 13.5399 5.08092 13.36 5.23C13.2587 5.31395 13.175 5.41705 13.1137 5.5334C13.0523 5.64975 13.0145 5.77705 13.0025 5.90803C12.9904 6.03901 13.0043 6.17108 13.0433 6.29668C13.0824 6.42229 13.1458 6.53895 13.23 6.64L16.86 11H5C4.73478 11 4.48043 11.1054 4.29289 11.2929C4.10536 11.4804 4 11.7348 4 12C4 12.2652 4.10536 12.5196 4.29289 12.7071C4.48043 12.8946 4.73478 13 5 13Z" fill="black"/>
  </g>
</svg>
